<svg xmlns="http://www.w3.org/2000/svg" width="100" height="76" viewBox="0 0 100 76"><path fill="#3264ff" d="M92.986.905c.454-.603 1.056-.905 1.81-.905.755 0 1.358.302 1.81.905l2.715 2.489c.453.603.679 1.282.679 2.036s-.226 1.357-.679 1.81l-67.873 67.873c-.603.603-1.244.905-1.923.905s-1.32-.302-1.923-.905l-26.923-26.923c-.453-.452-.679-1.056-.679-1.81s.226-1.433.679-2.036l2.715-2.489c.452-.603 1.055-.905 1.81-.905.754 0 1.357.302 1.81.905l22.398 22.398z" clip-path="url(#clip-9c14a066-b1f2-4ae6-80ed-0ddcf4854b61)"/></svg>