<svg xmlns="http://www.w3.org/2000/svg" width="15" height="15" viewBox="0 0 15 15"><g><g><path fill="#222" d="M12.924 4.964l-2.891-2.89 1.14-1.14a.695.695 0 0 1 .512-.205c.205 0 .376.068.512.205L14.063 2.8a.696.696 0 0 1 .205.512.695.695 0 0 1-.205.513zm-11.398 9.19l-.684-.683.137-2.344.456-.456h.797v2.094h2.094v.797l-.456.456zm3.437-1.23v-.797H2.87v-2.094h-.797l7.436-7.436 2.89 2.891zM12.721.433A1.414 1.414 0 0 0 11.685 0c-.403 0-.748.144-1.037.433L.296 10.785l-.297 3.597a.549.549 0 0 0 .16.456.549.549 0 0 0 .456.16l3.597-.297L14.564 4.35c.289-.289.433-.634.433-1.037 0-.402-.144-.748-.433-1.036z"/></g></g></svg>