<svg xmlns="http://www.w3.org/2000/svg" width="38" height="60" viewBox="0 0 38 60"><g><g><g><path fill="#ccc" d="M32.375 42.822a4.765 4.765 0 0 1-4.758 4.765H6.657a4.773 4.773 0 0 1-4.758-4.765V17.14a4.773 4.773 0 0 1 4.758-4.766h20.938a4.765 4.765 0 0 1 4.758 4.766zM6.657 10.469A6.672 6.672 0 0 0 0 17.141v25.68a6.672 6.672 0 0 0 6.657 6.672h20.938a6.672 6.672 0 0 0 6.664-6.671V17.14a6.672 6.672 0 0 0-6.642-6.672z"/></g><g><path fill="#ccc" d="M6.874 10.469L8.06 3.932a2.59 2.59 0 0 1 2.424-2.026H23.82a2.604 2.604 0 0 1 2.424 2.026l1.186 6.537zm22.634.75l-1.395-7.632A4.503 4.503 0 0 0 23.82 0H10.484a4.503 4.503 0 0 0-4.3 3.587L4.795 11.22a.953.953 0 0 0 .939 1.125H28.57a.968.968 0 0 0 .75-.345.946.946 0 0 0 .188-.78z"/></g><g><path fill="#ccc" d="M26.244 56.03a2.604 2.604 0 0 1-2.424 2.026H10.484A2.59 2.59 0 0 1 8.06 56.03l-1.186-6.537H27.43zm3.054-8.098a.938.938 0 0 0-.75-.345H5.734a.953.953 0 0 0-.939 1.156l1.389 7.662a4.503 4.503 0 0 0 4.3 3.595H23.82a4.503 4.503 0 0 0 4.293-3.587l1.395-7.67a.923.923 0 0 0-.21-.81z"/></g><g><path fill="#ccc" d="M36.188 27.73a.818.818 0 0 1-.81.81H34.28v-6.649h1.096a.81.81 0 0 1 .81.81zm-2.86-7.745a.953.953 0 0 0-.953.99v8.533a.946.946 0 0 0 .953.946h2.05a2.71 2.71 0 0 0 2.708-2.724v-5.028a2.717 2.717 0 0 0-2.709-2.717z"/></g></g></g></svg>