<svg xmlns="http://www.w3.org/2000/svg" width="75" height="50" viewBox="0 0 75 50"><g><g><g><path fill="#ccc" d="M73.018 43.818c-.603 2.624-3.164 4.508-6.138 4.514H8.128c-2.979-.008-5.542-1.898-6.138-4.527l-.066-.29h71.16zm1.053-1.978H.936a.985.985 0 0 0-.661.243.798.798 0 0 0-.275.594C.004 46.72 3.64 49.997 8.128 50H66.88c4.484-.007 8.116-3.282 8.12-7.323 0-.462-.416-.837-.929-.837z"/></g><g><path fill="#ccc" d="M67.709 41.617H7.298V1.897h60.41zM68.656 0H6.35a.948.948 0 0 0-.946.949v41.617c0 .524.423.949.946.949h62.305a.948.948 0 0 0 .946-.949V.949A.948.948 0 0 0 68.656 0z"/></g></g></g></svg>