<svg xmlns="http://www.w3.org/2000/svg" width="45" height="60" viewBox="0 0 45 60"><g><g><g><g><path fill="#ccc" d="M15.915 1.935h24.172c1.603 0 2.903 1.3 2.903 2.903v50.324c0 1.603-1.3 2.903-2.903 2.903H4.837a2.91 2.91 0 0 1-2.902-2.903V4.838a2.91 2.91 0 0 1 2.903-2.903zM40.087 0H4.837A4.845 4.845 0 0 0 0 4.838v50.324A4.845 4.845 0 0 0 4.86 60h35.25a4.838 4.838 0 0 0 4.837-4.838V4.838A4.838 4.838 0 0 0 40.087 0z"/></g></g><g><path fill="#ccc" d="M.36 49.477h44.227v1.935H.36z"/></g><g><path fill="#ccc" d="M21.503 54.757a.968.968 0 1 1 1.935 0 .968.968 0 0 1-1.935 0z"/></g></g></g></svg>