<svg xmlns="http://www.w3.org/2000/svg" width="51" height="80" viewBox="0 0 51 80">
	<path fill="#ccc"
		d="M43.14 57.06a6.35 6.35 0 0 1-6.34 6.35h-27.93a6.36 6.36 0 0 1-6.34-6.35v-34.22a6.36 6.36 0 0 1 6.34-6.35h27.9a6.35 6.35 0 0 1 6.34 6.35zm-34.27-43.11a8.89 8.89 0 0 0-8.87 8.89v34.22a8.89 8.89 0 0 0 8.87 8.89h27.9a8.89 8.89 0 0 0 8.88-8.89v-34.22a8.89 8.89 0 0 0-8.85-8.89zM9.16 13.95l1.58-8.71a3.45 3.45 0 0 1 3.23-2.7h17.77a3.47 3.47 0 0 1 3.23 2.7l1.58 8.71zm30.16 1l-1.86-10.17a6 6 0 0 0-5.72-4.78h-17.77a6 6 0 0 0-5.73 4.78l-1.85 10.17a1.27 1.27 0 0 0 1.25 1.5h30.43a1.29 1.29 0 0 0 1-.46 1.26 1.26 0 0 0 .25-1.04zM34.97 74.66a3.47 3.47 0 0 1-3.23 2.7h-17.77a3.45 3.45 0 0 1-3.23-2.7l-1.58-8.71h27.39zm4.07-10.79a1.25 1.25 0 0 0-1-.46h-30.4a1.27 1.27 0 0 0-1.25 1.54l1.85 10.21a6 6 0 0 0 5.73 4.79h17.77a6 6 0 0 0 5.72-4.78l1.86-10.22a1.23 1.23 0 0 0-.28-1.08zM48.22 36.95a1.09 1.09 0 0 1-1.08 1.08h-1.46v-8.86h1.46c.597 0 1.08.484 1.08 1.08zm-3.81-10.32a1.27 1.27 0 0 0-1.27 1.32v11.37a1.26 1.26 0 0 0 1.27 1.26h2.73a3.61 3.61 0 0 0 3.61-3.63v-6.7a3.62 3.62 0 0 0-3.61-3.62z" />
</svg>