<svg xmlns="http://www.w3.org/2000/svg" width="10" height="9"><g clip-path="url(#clip-e7d3f989-a4ab-40e8-a506-1bcd00cb1298)"><path fill="#3264ff" d="M4.727.116A.347.347 0 004.48 0a.347.347 0 00-.247.116L.116 4.233A.276.276 0 000 4.465c0 .097.039.175.116.233l4.117 4.117c.078.077.16.116.247.116s.17-.039.247-.116l.203-.203a.276.276 0 00.116-.233.36.36 0 00-.116-.26L1.74 4.958h7.91a.336.336 0 00.247-.102.336.336 0 00.102-.246v-.29a.336.336 0 00-.102-.247.336.336 0 00-.246-.102h-7.91L4.93.812a.36.36 0 00.116-.26.276.276 0 00-.116-.233z"/></g></svg>