<svg xmlns="http://www.w3.org/2000/svg" width="17" height="11"><path fill="#3264ff" d="M11.199.884a.4.4 0 01.285-.134.4.4 0 01.285.134l4.755 4.756c.09.067.135.156.135.268a.319.319 0 01-.135.268l-4.755 4.756a.4.4 0 01-.285.134.4.4 0 01-.285-.134l-.235-.235a.319.319 0 01-.134-.268c0-.112.045-.213.134-.302l3.683-3.65H.352a.388.388 0 01-.285-.117.388.388 0 01-.117-.285V5.74c0-.112.04-.207.117-.285a.388.388 0 01.285-.117h14.295l-3.683-3.65a.417.417 0 01-.134-.301c0-.112.045-.201.134-.268z" clip-path="url(#clip-a7c07845-035d-4cc4-8e0c-1de9da0d13ee)"/></svg>