<svg xmlns="http://www.w3.org/2000/svg" width="11" height="15"><path fill="#3264ff" d="M5.25 8.188a2.106 2.106 0 01-1.545-.643A2.106 2.106 0 013.062 6c0-.602.215-1.117.643-1.545a2.106 2.106 0 011.545-.643c.602 0 1.117.215 1.545.643.428.428.643.943.643 1.545s-.215 1.117-.643 1.545a2.106 2.106 0 01-1.545.643zm-.547 6.289c.128.182.31.273.547.273.237 0 .42-.091.547-.273l1.832-2.625a105.787 105.787 0 001.805-2.653c.419-.656.701-1.207.847-1.654.146-.447.219-.962.219-1.545 0-.948-.237-1.823-.71-2.625a5.35 5.35 0 00-1.915-1.914A5.067 5.067 0 005.25.75c-.948 0-1.823.237-2.625.71A5.35 5.35 0 00.711 3.376 5.067 5.067 0 000 6c0 .583.073 1.098.219 1.545.146.447.428.998.847 1.654.292.456.894 1.34 1.805 2.653a216.802 216.802 0 011.832 2.625z"/></svg>