<svg xmlns="http://www.w3.org/2000/svg" width="14" height="15"><path fill="#3264ff" d="M12.195 8.05zm.246.384c.037.036.05.086.041.15a.257.257 0 01-.068.15l-3.172 2.297c-.42.328-.765.565-1.039.711-.437.255-.838.383-1.203.383-.365 0-.766-.128-1.203-.383-.274-.146-.62-.383-1.04-.71l-3.17-2.299a.257.257 0 01-.068-.15c-.01-.064.004-.114.04-.15l.247-.383a.343.343 0 01.136-.082.18.18 0 01.164.027L5.25 10.32c.365.292.656.493.875.602.346.219.638.328.875.328s.529-.11.875-.328c.219-.11.51-.31.875-.602l3.145-2.324a.18.18 0 01.164-.027l.136.082zM14 6.246c0-.437-.164-.784-.492-1.039-.748-.583-2.251-1.695-4.512-3.336L8.75 1.68c-.365-.292-.656-.493-.875-.602C7.529.86 7.237.75 7 .75s-.529.11-.875.328c-.219.11-.51.31-.875.602l-.246.191C2.744 3.511 1.24 4.624.492 5.207.164 5.462 0 5.809 0 6.247v7.19c0 .365.128.675.383.93s.565.383.93.383h11.374c.365 0 .675-.128.93-.383s.383-.565.383-.93z"/></svg>