<svg xmlns="http://www.w3.org/2000/svg" width="51" height="80"><path fill="#ccc" d="M43.14 57.06a6.35 6.35 0 01-6.34 6.35H8.87a6.36 6.36 0 01-6.34-6.35V22.84a6.36 6.36 0 016.34-6.35h27.9a6.35 6.35 0 016.34 6.35zM8.87 13.95A8.89 8.89 0 000 22.84v34.22a8.89 8.89 0 008.87 8.89h27.9a8.89 8.89 0 008.88-8.89V22.84a8.89 8.89 0 00-8.85-8.89zm.29 0l1.58-8.71a3.45 3.45 0 013.23-2.7h17.77a3.47 3.47 0 013.23 2.7l1.58 8.71zm30.16 1L37.46 4.78A6 6 0 0031.74 0H13.97a6 6 0 00-5.73 4.78L6.39 14.95a1.27 1.27 0 001.25 1.5h30.43a1.29 1.29 0 001-.46 1.26 1.26 0 00.25-1.04zm-4.35 59.71a3.47 3.47 0 01-3.23 2.7H13.97a3.45 3.45 0 01-3.23-2.7l-1.58-8.71h27.39zm4.07-10.79a1.25 1.25 0 00-1-.46H7.64a1.27 1.27 0 00-1.25 1.54l1.85 10.21a6 6 0 005.73 4.79h17.77a6 6 0 005.72-4.78l1.86-10.22a1.23 1.23 0 00-.28-1.08zm9.18-26.92a1.09 1.09 0 01-1.08 1.08h-1.46v-8.86h1.46c.597 0 1.08.484 1.08 1.08zm-3.81-10.32a1.27 1.27 0 00-1.27 1.32v11.37a1.26 1.26 0 001.27 1.26h2.73a3.61 3.61 0 003.61-3.63v-6.7a3.62 3.62 0 00-3.61-3.62z"/></svg>