<svg xmlns="http://www.w3.org/2000/svg" width="102" height="68"><path fill="#ccc" d="M99.304 58.62c-.82 3.98-4.303 6.84-8.348 6.85H11.054c-4.051-.012-7.537-2.881-8.348-6.87l-.09-.44h96.777zm1.432-3H1.273a1.26 1.26 0 00-.9.368A1.274 1.274 0 000 56.89C.005 63.024 4.95 67.994 11.054 68h79.902c6.099-.011 11.038-4.98 11.044-11.11 0-.701-.566-1.27-1.264-1.27zm-9.451.004h-80.56V2.536h80.56zM9.462 0C8.765 0 8.2.568 8.2 1.268v55.624c0 .7.565 1.268 1.262 1.268h83.086c.697 0 1.262-.568 1.262-1.268V1.268c0-.7-.565-1.268-1.262-1.268z"/></svg>