<svg xmlns="http://www.w3.org/2000/svg" width="14" height="14"><path fill="#3264ff" d="M6.152 7.79a.337.337 0 01-.136-.274V2.922a.32.32 0 01.095-.233.316.316 0 01.233-.095h1.312a.32.32 0 01.233.095.316.316 0 01.095.233v3.773l1.75 1.258a.3.3 0 01.123.219.34.34 0 01-.068.246l-.766 1.039a.35.35 0 01-.218.137.296.296 0 01-.246-.055zM7-.032a6.574 6.574 0 00-3.39.916 6.852 6.852 0 00-2.475 2.474A6.573 6.573 0 00.219 6.75c0 1.221.305 2.352.916 3.39a6.852 6.852 0 002.474 2.475c1.04.61 2.17.916 3.391.916a6.573 6.573 0 003.39-.916 6.852 6.852 0 002.475-2.474c.61-1.04.916-2.17.916-3.391a6.574 6.574 0 00-.916-3.39A6.852 6.852 0 0010.391.884 6.573 6.573 0 007-.031z"/></svg>