<svg xmlns="http://www.w3.org/2000/svg" width="14" height="15" viewBox="0 0 14 15"><path fill="#3264ff" d="M12.195 8.05zm.246.384c.037.036.05.086.041.15a.257.257 0 0 1-.068.15l-3.172 2.297c-.42.328-.765.565-1.039.711-.437.255-.838.383-1.203.383-.365 0-.766-.128-1.203-.383-.274-.146-.62-.383-1.04-.71l-3.17-2.299a.257.257 0 0 1-.068-.15c-.01-.064.004-.114.04-.15l.247-.383a.343.343 0 0 1 .136-.082.18.18 0 0 1 .164.027l3.144 2.325c.365.292.656.493.875.602.346.219.638.328.875.328s.529-.11.875-.328c.219-.11.51-.31.875-.602l3.145-2.324a.18.18 0 0 1 .164-.027l.136.082zm1.559-2.188c0-.437-.164-.784-.492-1.039-.748-.583-2.251-1.695-4.512-3.336l-.246-.191c-.365-.292-.656-.493-.875-.602-.346-.218-.638-.328-.875-.328s-.529.11-.875.328c-.219.11-.51.31-.875.602l-.246.191c-2.26 1.64-3.764 2.753-4.512 3.336-.328.255-.492.602-.492 1.04v7.19c0 .365.128.675.383.93s.565.383.93.383h11.374c.365 0 .675-.128.93-.383s.383-.565.383-.93z"/></svg>