<svg xmlns="http://www.w3.org/2000/svg" width="14" height="15" viewBox="0 0 14 15"><path fill="#3264ff" d="M.52 1.434a.519.519 0 0 0-.383.218.693.693 0 0 0-.137.41c0 2.297.574 4.43 1.723 6.399a12.748 12.748 0 0 0 4.566 4.566 12.48 12.48 0 0 0 6.399 1.723.693.693 0 0 0 .41-.137.519.519 0 0 0 .218-.383l.657-2.843a.617.617 0 0 0-.055-.438.589.589 0 0 0-.328-.3l-3.063-1.313a.694.694 0 0 0-.41-.041.55.55 0 0 0-.355.232l-1.34 1.641a9.612 9.612 0 0 1-2.858-1.996 10.046 10.046 0 0 1-1.982-2.844l1.64-1.367a.655.655 0 0 0 .22-.342.682.682 0 0 0-.028-.424l-1.312-3.062a.603.603 0 0 0-.302-.301.617.617 0 0 0-.438-.055z"/></svg>