<svg xmlns="http://www.w3.org/2000/svg" width="14" height="14" viewBox="0 0 14 14"><g><g><path fill="#3264ff" d="M6.152 7.79a.337.337 0 0 1-.136-.274V2.922c0-.091.032-.169.095-.233a.316.316 0 0 1 .233-.095h1.312c.091 0 .169.032.233.095a.316.316 0 0 1 .095.233v3.773l1.75 1.258a.3.3 0 0 1 .123.219.34.34 0 0 1-.068.246l-.766 1.039a.35.35 0 0 1-.218.137.296.296 0 0 1-.246-.055zM7-.032a6.574 6.574 0 0 0-3.39.916 6.852 6.852 0 0 0-2.475 2.474A6.573 6.573 0 0 0 .219 6.75c0 1.221.305 2.352.916 3.39a6.852 6.852 0 0 0 2.474 2.475c1.04.61 2.17.916 3.391.916a6.573 6.573 0 0 0 3.39-.916 6.852 6.852 0 0 0 2.475-2.474c.61-1.04.916-2.17.916-3.391a6.574 6.574 0 0 0-.916-3.39A6.852 6.852 0 0 0 10.391.884 6.573 6.573 0 0 0 7-.031z"/></g></g></svg>